Patient4_TMGait_0pt4_03_right_05_GRF.mot
version=1
nRows=65
nColumns=19
inDegrees=no
endheader
time	F1x	F1y	F1z	M1x	M1y	M1z	F2x	F2y	F2z	M2x	M2y	M2z	EC1x	EC1y	EC1z	EC2x	EC2y	EC2z
5.48	7.011	752.2758	52.057	-265.8714	-48.0311	745.4508	10.6161	-19.5423	3.3661	-4.2783	-7.9689	-25.6604	-0.0592	0.0182	-0.0073	-0.0462	0.0165	0.9585
5.4929	9.3446	746.5357	55.0929	-263.9404	-49.2046	739.5417	7.2262	-12.1744	2.2429	-2.5408	-5.367	-16.1899	-0.0592	0.0182	-0.0073	-0.0462	0.0165	0.9585
5.5059	11.8476	741.3815	57.442	-262.2409	-49.6667	733.4023	4.3087	-5.9622	1.2879	-1.0669	-3.1523	-8.2118	-0.0592	0.0182	-0.0073	-0.0462	0.0165	0.9585
5.5188	14.409	737.4602	59.0476	-260.9888	-49.4375	727.6841	2.0317	-1.2301	0.55022	0.064634	-1.4441	-2.1289	-0.0592	0.0182	-0.0073	-0.0462	0.0165	0.9585
5.5317	16.9499	735.1879	59.9638	-260.3176	-48.6157	722.9301	0.42945	2.0481	0.037073	0.85833	-0.2506	2.0821	-0.0592	0.0182	-0.0073	-0.0462	0.0165	0.9585
5.5446	19.4041	734.7222	60.3616	-260.2723	-47.3932	719.4734	-0.60288	4.0936	-0.29279	1.3621	0.51459	4.7092	-0.0592	0.0182	-0.0073	-0.0462	0.0165	0.9585
5.5576	21.7509	736.0193	60.3676	-260.8333	-45.9024	717.4393	-1.2081	5.167	-0.47316	1.632	0.94702	6.0941	-0.0592	0.0182	-0.0073	-0.0462	0.0165	0.9585
5.5705	23.9934	738.8775	60.1171	-261.9282	-44.2664	716.7756	-1.5127	5.5103	-0.55825	1.7182	1.1602	6.5558	-0.0592	0.0182	-0.0073	-0.0462	0.0165	0.9585
5.5834	26.1506	742.9694	59.6902	-263.442	-42.5489	717.2734	-1.6471	5.3207	-0.58726	1.6568	1.2498	6.3609	-0.0592	0.0182	-0.0073	-0.0462	0.0165	0.9585
5.5964	28.2451	747.86	59.1825	-265.2169	-40.8314	718.5965	-1.6858	4.6837	-0.59323	1.4547	1.2812	5.6216	-0.0592	0.0182	-0.0073	-0.0462	0.0165	0.9585
5.6093	30.3114	753.0391	58.658	-267.0676	-39.1638	720.3109	-1.7094	3.6497	-0.58978	1.1095	1.2937	4.4235	-0.0592	0.0182	-0.0073	-0.0462	0.0165	0.9585
5.6222	32.3612	757.9985	58.1857	-268.8011	-37.6086	721.9795	-1.7097	2.201	-0.58733	0.60251	1.298	2.7429	-0.0592	0.0182	-0.0073	-0.0462	0.0165	0.9585
5.6351	34.385	762.2887	57.8145	-270.2369	-36.2153	723.2194	-1.6908	0.32355	-0.57678	-0.079288	1.2843	0.57807	-0.0592	0.0182	-0.0073	-0.0462	0.0165	0.9585
5.6481	36.3646	765.4774	57.5937	-271.1945	-35.04	723.6612	-1.5873	-1.9708	-0.55172	-0.93096	1.2188	-2.0586	-0.0592	0.0182	-0.0073	-0.0462	0.0165	0.9585
5.661	38.2275	767.1401	57.5601	-271.4904	-34.1396	722.9569	-1.2971	-4.5349	-0.48754	-1.8948	1.0374	-4.9996	-0.0592	0.0182	-0.0073	-0.0462	0.0165	0.9585
5.6739	39.8995	766.8858	57.7575	-270.9518	-33.5831	720.7876	-0.70748	-7.0424	-0.34925	-2.8421	0.65754	-7.8689	-0.0592	0.0182	-0.0073	-0.0462	0.0165	0.9585
5.6869	41.2886	764.4772	58.1966	-269.4659	-33.4079	716.9892	0.345	-8.8725	-0.089663	-3.5313	-0.031154	-9.9694	-0.0592	0.0182	-0.0073	-0.0462	0.0165	0.9585
5.6998	42.3759	759.9242	58.8808	-267.0176	-33.6263	711.5983	2.0023	-9.0008	0.33626	-3.5697	-1.1294	-10.1265	-0.0592	0.0182	-0.0073	-0.0462	0.0165	0.9585
5.7127	43.1729	753.446	59.799	-263.678	-34.224	704.8321	4.3779	-6.0043	0.98182	-2.4057	-2.7294	-6.7282	-0.0592	0.0182	-0.0073	-0.0462	0.0165	0.9585
5.7256	43.7524	745.3276	60.9384	-259.5574	-35.1706	696.9421	7.4586	2.0167	1.8717	0.68637	-4.845	2.3934	-0.0592	0.0182	-0.0073	-0.0462	0.0165	0.9585
5.7386	44.199	735.7687	62.2227	-254.7564	-36.3727	688.0722	11.0732	17.2689	2.9936	6.5484	-7.3809	19.7408	-0.0592	0.0182	-0.0073	-0.0462	0.0165	0.9585
5.7515	44.5891	724.7303	63.4911	-249.3104	-37.6642	678.1344	14.7117	41.9572	4.2629	16.0181	-10.0349	47.8289	-0.0592	0.0182	-0.0073	-0.0462	0.0165	0.9585
5.7644	44.9521	711.6746	64.484	-243.1061	-38.7972	666.5599	17.4534	77.7288	5.4892	29.713	-12.2241	88.5391	-0.0592	0.0182	-0.0073	-0.0462	0.0165	0.9585
5.7774	45.2178	695.5225	64.8677	-235.8673	-39.4853	652.2964	17.824	124.7414	6.3121	47.6748	-12.9725	142.0502	-0.0592	0.0182	-0.0073	-0.0462	0.0165	0.9585
5.7903	45.3001	674.8376	64.2395	-227.214	-39.378	633.9364	13.8948	180.5624	6.1476	68.9479	-10.9113	205.6108	-0.0592	0.0182	-0.0073	-0.0462	0.0165	0.9585
5.8032	45.1076	648.2253	62.2401	-216.7792	-38.1608	610.1038	5.239	240.3796	4.1802	91.6194	-4.9977	273.8415	-0.0592	0.0182	-0.0073	-0.0462	0.0165	0.9585
5.8161	44.6344	614.7994	58.6728	-204.3529	-35.632	579.8378	-5.8299	298.2307	0.0032883	113.346	4.2708	339.8939	-0.0592	0.0182	-0.0073	-0.0462	0.0165	0.9585
5.8291	43.8895	574.3374	53.6827	-189.9124	-31.8883	542.7968	-16.4458	348.799	-6.0802	132.0868	15.4044	397.4387	-0.0592	0.0182	-0.0073	-0.0462	0.0165	0.9585
5.842	42.7835	527.1039	47.641	-173.5573	-27.2625	499.1473	-24.975	389.6397	-13.4798	146.9243	27.0609	443.5177	-0.0592	0.0182	-0.0073	-0.0462	0.0165	0.9585
5.8549	41.1332	473.9535	41.0466	-155.5403	-22.2457	449.6709	-30.8511	421.5406	-21.1392	158.2087	37.859	478.9962	-0.0592	0.0182	-0.0073	-0.0462	0.0165	0.9585
5.8679	38.7582	416.4089	34.3537	-136.3104	-17.2973	395.8263	-34.3715	447.1709	-28.4117	167.015	47.178	507.0038	-0.0592	0.0182	-0.0073	-0.0462	0.0165	0.9585
5.8808	35.5383	356.5411	27.9349	-116.4881	-12.7939	339.599	-36.0635	469.9648	-34.714	174.7227	54.6291	531.4446	-0.0592	0.0182	-0.0073	-0.0462	0.0165	0.9585
5.8937	31.4178	296.7432	22.0147	-96.8023	-8.9677	283.2881	-36.4708	493.4667	-40.031	182.7238	60.43	556.3152	-0.0592	0.0182	-0.0073	-0.0462	0.0165	0.9585
5.9066	26.4704	239.4465	16.7621	-78.0021	-5.9657	229.2103	-36.0392	520.6884	-44.4487	192.1994	64.907	584.9618	-0.0592	0.0182	-0.0073	-0.0462	0.0165	0.9585
5.9196	20.9133	186.8872	12.2719	-60.7834	-3.8239	179.5015	-35.2025	553.3982	-48.3615	203.8317	68.6753	619.391	-0.0592	0.0182	-0.0073	-0.0462	0.0165	0.9585
5.9325	15.1084	140.8097	8.6187	-45.6975	-2.5061	135.822	-34.2644	591.5725	-52.0121	217.62	72.1442	659.5974	-0.0592	0.0182	-0.0073	-0.0462	0.0165	0.9585
5.9454	9.4887	102.2142	5.7946	-33.0667	-1.8705	99.1289	-33.4961	633.5169	-55.6663	232.9237	75.6967	703.7648	-0.0592	0.0182	-0.0073	-0.0462	0.0165	0.9585
5.9584	4.4488	71.25	3.7301	-22.9438	-1.726	69.5795	-33.0384	676.5342	-59.2936	248.7283	79.3542	748.9595	-0.0592	0.0182	-0.0073	-0.0462	0.0165	0.9585
5.9713	0.30515	47.377	2.2934	-15.1598	-1.849	46.6888	-32.9252	717.6291	-62.7865	263.9066	82.999	791.9172	-0.0592	0.0182	-0.0073	-0.0462	0.0165	0.9585
5.9842	-2.7058	29.631	1.3532	-9.4015	-2.0423	29.5717	-33.1159	754.0186	-65.9184	277.4123	86.3577	829.6159	-0.0592	0.0182	-0.0073	-0.0462	0.0165	0.9585
5.9971	-4.4319	16.8924	0.76853	-5.2986	-2.1318	17.1914	-33.4588	783.4832	-68.5297	288.4092	89.1845	859.6513	-0.0592	0.0182	-0.0073	-0.0462	0.0165	0.9585
6.0101	-4.9017	8.1186	0.40871	-2.5018	-2.0087	8.5885	-33.8284	804.658	-70.4398	296.3714	91.2292	880.5806	-0.0592	0.0182	-0.0073	-0.0462	0.0165	0.9585
6.023	-4.4213	2.4907	0.19228	-0.73287	-1.6983	3.0026	-34.1071	817.0265	-71.5543	301.0901	92.3362	891.8799	-0.0592	0.0182	-0.0073	-0.0462	0.0165	0.9585
6.0359	-3.4949	-0.66822	0.078632	0.24109	-1.3214	-0.17717	-34.2396	820.9769	-71.8062	302.6888	92.4096	894.0313	-0.0592	0.0182	-0.0073	-0.0462	0.0165	0.9585
6.0489	-2.4497	-2.0731	0.043765	0.65668	-0.96448	-1.6279	-34.159	817.6762	-71.2511	301.5822	91.4864	888.3424	-0.0592	0.0182	-0.0073	-0.0462	0.0165	0.9585
6.0618	-1.4961	-2.3293	0.05071	0.71549	-0.66556	-1.922	-33.8476	808.9511	-70.0247	298.4298	89.7131	876.8293	-0.0592	0.0182	-0.0073	-0.0462	0.0165	0.9585
6.0747	-0.71773	-1.938	0.086371	0.57795	-0.44608	-1.5663	-33.2894	796.9612	-68.3491	294.0202	87.3332	861.8323	-0.0592	0.0182	-0.0073	-0.0462	0.0165	0.9585
6.0876	-0.14536	-1.2577	0.12592	0.35466	-0.29642	-0.91215	-32.4721	783.87	-66.4457	289.1489	84.5946	845.6551	-0.0592	0.0182	-0.0073	-0.0462	0.0165	0.9585
6.1006	0.23349	-0.5073	0.16707	0.11329	-0.20969	-0.17718	-31.3844	771.5337	-64.5233	284.5045	81.7276	830.2461	-0.0592	0.0182	-0.0073	-0.0462	0.0165	0.9585
6.1135	0.45624	0.19338	0.19834	-0.11134	-0.16287	0.51172	-30.0229	761.316	-62.7506	280.6011	78.9164	817.0155	-0.0592	0.0182	-0.0073	-0.0462	0.0165	0.9585
6.1264	0.54609	0.78088	0.22428	-0.304	-0.14837	1.0915	-28.4136	754.0492	-61.2659	277.7587	76.3169	806.8116	-0.0592	0.0182	-0.0073	-0.0462	0.0165	0.9585
6.1394	0.55768	1.2416	0.24598	-0.46339	-0.15328	1.5331	-26.593	750.0386	-60.1538	276.1073	74.0315	799.9186	-0.0592	0.0182	-0.0073	-0.0462	0.0165	0.9585
6.1523	0.50994	1.5916	0.27275	-0.59156	-0.18251	1.8686	-24.6274	749.1488	-59.4431	275.6128	72.1103	796.1686	-0.0592	0.0182	-0.0073	-0.0462	0.0165	0.9585
6.1652	0.44543	1.8353	0.30211	-0.68744	-0.22538	2.0909	-22.5547	750.9049	-59.0965	276.1127	70.5318	795.032	-0.0592	0.0182	-0.0073	-0.0462	0.0165	0.9585
6.1781	0.35959	1.9874	0.33601	-0.74952	-0.28486	2.2231	-20.4104	754.5987	-59.0397	277.354	69.2353	795.7499	-0.0592	0.0182	-0.0073	-0.0462	0.0165	0.9585
6.1911	0.2713	2.0232	0.37032	-0.76675	-0.35227	2.2373	-18.1968	759.3298	-59.1789	279.0108	68.1259	797.3656	-0.0592	0.0182	-0.0073	-0.0462	0.0165	0.9585
6.204	0.17123	1.9107	0.40602	-0.72485	-0.42939	2.0978	-15.9123	764.1206	-59.4098	280.7258	67.0918	798.8622	-0.0592	0.0182	-0.0073	-0.0462	0.0165	0.9585
6.2169	0.059976	1.5929	0.43983	-0.60344	-0.51191	1.7315	-13.5365	768.0453	-59.6379	282.1591	66.0293	799.2942	-0.0592	0.0182	-0.0073	-0.0462	0.0165	0.9585
6.2299	-0.055155	0.98976	0.47024	-0.3771	-0.5946	1.0452	-11.0362	770.3724	-59.783	283.0401	64.8485	797.9443	-0.0592	0.0182	-0.0073	-0.0462	0.0165	0.9585
6.2428	-0.17196	0.031653	0.49711	-0.023581	-0.67108	-0.040866	-8.3791	770.673	-59.7922	283.2026	63.487	794.4223	-0.0592	0.0182	-0.0073	-0.0462	0.0165	0.9585
6.2557	-0.2573	-1.3337	0.51492	0.47523	-0.72224	-1.6054	-5.5516	768.8444	-59.6475	282.5937	61.9211	788.686	-0.0592	0.0182	-0.0073	-0.0462	0.0165	0.9585
6.2686	-0.28362	-3.1022	0.50846	1.1197	-0.71813	-3.6414	-2.58	765.0712	-59.3843	281.259	60.1912	781.009	-0.0592	0.0182	-0.0073	-0.0462	0.0165	0.9585
6.2816	-0.18002	-5.1876	0.44934	1.8751	-0.60099	-6.0561	0.47507	759.7194	-59.0811	279.3063	58.3963	771.8543	-0.0592	0.0182	-0.0073	-0.0462	0.0165	0.9585
6.2945	0.12842	-7.3174	0.29852	2.6415	-0.29952	-8.5322	3.5185	753.3022	-58.8441	276.8936	56.6758	761.8408	-0.0592	0.0182	-0.0073	-0.0462	0.0165	0.9585
6.3074	0.75569	-8.9919	0.00016235	3.2338	0.28675	-10.4965	6.4726	746.4072	-58.7768	274.2096	55.1655	751.6401	-0.0592	0.0182	-0.0073	-0.0462	0.0165	0.9585
